<?xml version="1.0" encoding="UTF-8"?>
<svg version="1.1" xmlns="http://www.w3.org/2000/svg" width="500" height="500">
<path d="M0 0 C1.0758989 -0.00637985 2.15179779 -0.0127597 3.26029968 -0.01933289 C5.02407707 -0.02100212 5.02407707 -0.02100212 6.82348633 -0.02270508 C8.03184647 -0.02603348 9.2402066 -0.02936188 10.48518372 -0.03279114 C13.05685037 -0.03787027 15.62852365 -0.04019916 18.20019531 -0.04003906 C22.09362099 -0.04220194 25.98675238 -0.06028117 29.88012695 -0.0793457 C32.38207911 -0.08228433 34.88403262 -0.08426598 37.38598633 -0.08520508 C39.11029121 -0.09598335 39.11029121 -0.09598335 40.86943054 -0.10697937 C54.98061933 -0.06810767 69.41361634 0.56379348 80.33911133 10.23120117 C84.72836681 15.3888395 84.44870787 21.20798187 84.34692383 27.68823242 C83.73161048 33.30217382 81.64456712 36.9513706 77.30004883 40.51245117 C75.65551758 41.64526367 75.65551758 41.64526367 72.96801758 43.14526367 C73.89614258 43.68151367 74.82426758 44.21776367 75.78051758 44.77026367 C81.37790655 48.94086722 82.10781513 53.36554673 83.15551758 60.02026367 C83.55770508 63.05213867 83.55770508 63.05213867 83.96801758 66.14526367 C75.38801758 66.14526367 66.80801758 66.14526367 57.96801758 66.14526367 C54.96801758 59.14526367 54.96801758 59.14526367 54.04614258 56.81713867 C53.77286133 56.18291992 53.49958008 55.54870117 53.21801758 54.89526367 C52.82356445 53.9284668 52.82356445 53.9284668 52.42114258 52.94213867 C49.54570724 49.38649283 45.70755596 48.36121305 41.33666992 47.81860352 C38.39948433 47.62886543 35.4729918 47.52476862 32.53051758 47.45776367 C31.51280273 47.42360352 30.49508789 47.38944336 29.4465332 47.35424805 C26.95406713 47.27233602 24.46106225 47.20710995 21.96801758 47.14526367 C21.96801758 53.41526367 21.96801758 59.68526367 21.96801758 66.14526367 C12.72801758 66.14526367 3.48801758 66.14526367 -6.03198242 66.14526367 C-6.05453623 57.68758636 -6.07289912 49.22993227 -6.08379459 40.77223301 C-6.08902273 36.84537709 -6.09611912 32.91854273 -6.10742188 28.99169922 C-6.11825323 25.2051211 -6.12425978 21.41856377 -6.12685966 17.63197136 C-6.12871347 16.18422048 -6.13233323 14.73647079 -6.13771248 13.28872871 C-6.1449261 11.26769233 -6.1453905 9.2466352 -6.14550781 7.22558594 C-6.14772842 6.07308853 -6.14994904 4.92059113 -6.15223694 3.73316956 C-5.9425413 -0.77953059 -4.02863649 0.016158 0 0 Z M21.96801758 17.14526367 C21.96801758 21.76526367 21.96801758 26.38526367 21.96801758 31.14526367 C38.2348984 32.1294891 38.2348984 32.1294891 53.96801758 29.14526367 C56.47235728 27.03389665 56.47235728 27.03389665 56.96801758 24.14526367 C56.70985015 21.37468341 56.70985015 21.37468341 54.96801758 19.14526367 C50.7013443 17.35052118 47.07764319 16.90612438 42.47583008 16.94995117 C41.27700195 16.95639648 40.07817383 16.9628418 38.84301758 16.96948242 C36.98676758 16.99461914 36.98676758 16.99461914 35.09301758 17.02026367 C33.83231445 17.02928711 32.57161133 17.03831055 31.27270508 17.04760742 C28.17106076 17.07110473 25.06951455 17.10697359 21.96801758 17.14526367 Z " fill="#380589" transform="translate(327.031982421875,212.854736328125)"/>
<path d="M0 0 C1.12591553 0.00523682 2.25183105 0.01047363 3.41186523 0.01586914 C4.50571533 0.0183667 5.59956543 0.02086426 6.7265625 0.0234375 C8.82729126 0.03709351 8.82729126 0.03709351 10.97045898 0.05102539 C17.62202148 0.08196289 17.62202148 0.08196289 24.40795898 0.11352539 C24.40795898 10.01352539 24.40795898 19.91352539 24.40795898 30.11352539 C40.87937769 18.89727618 40.87937769 18.89727618 57.30639648 7.61621094 C57.89678711 7.20927002 58.48717773 6.8023291 59.09545898 6.38305664 C59.59432617 6.03863525 60.09319336 5.69421387 60.60717773 5.33935547 C61.20143555 4.93483154 61.79569336 4.53030762 62.40795898 4.11352539 C63.29177246 3.41477295 64.17558594 2.71602051 65.08618164 1.99609375 C69.2673475 -0.37352038 72.16520931 -0.40546681 76.86889648 -0.27709961 C77.65946442 -0.27143982 78.45003235 -0.26578003 79.26455688 -0.25994873 C81.77132626 -0.23768948 84.27662711 -0.18751614 86.78295898 -0.13647461 C88.48996948 -0.11639594 90.19700255 -0.09814757 91.90405273 -0.08178711 C96.07258094 -0.03785945 100.24002163 0.03109243 104.40795898 0.11352539 C101.66879227 2.9330567 99.05887815 5.55824957 95.75561523 7.69946289 C94.72960205 8.37283691 94.72960205 8.37283691 93.68286133 9.05981445 C92.95276855 9.53128906 92.22267578 10.00276367 91.47045898 10.48852539 C89.8798071 11.53156484 88.29000482 12.57590078 86.70092773 13.62133789 C85.85449707 14.17724609 85.00806641 14.7331543 84.13598633 15.3059082 C79.15131599 18.60879877 74.2190995 21.98872286 69.28295898 25.36352539 C68.30464111 26.03174316 67.32632324 26.69996094 66.31835938 27.38842773 C64.01432277 28.96262959 61.71083873 30.5376319 59.40795898 32.11352539 C61.91412881 34.72452664 64.37948509 36.92418993 67.39233398 38.92602539 C68.15521729 39.4385083 68.91810059 39.95099121 69.70410156 40.47900391 C70.51387451 41.018396 71.32364746 41.55778809 72.15795898 42.11352539 C79.31203898 46.93590524 86.30020801 51.91567205 93.1550293 57.15454102 C96.00422532 59.32896735 98.85168083 61.43611012 101.85717773 63.39086914 C102.69893555 63.9593457 103.54069336 64.52782227 104.40795898 65.11352539 C104.40795898 65.44352539 104.40795898 65.77352539 104.40795898 66.11352539 C69.72395677 68.66588201 69.72395677 68.66588201 59.87817383 61.44799805 C57.19185421 59.08629818 54.67446131 56.64068598 52.25805664 54.00366211 C48.97074027 50.64520298 45.17520064 47.90819432 41.40795898 45.11352539 C40.6719043 45.5840332 39.93584961 46.05454102 39.17749023 46.53930664 C38.20166992 47.16192383 37.22584961 47.78454102 36.22045898 48.42602539 C34.77606445 49.34834961 34.77606445 49.34834961 33.30249023 50.28930664 C30.40795898 52.11352539 30.40795898 52.11352539 27.60717773 53.15649414 C24.07715341 55.84867171 24.07715341 55.84867171 24.40795898 66.11352539 C15.16795898 66.11352539 5.92795898 66.11352539 -3.59204102 66.11352539 C-3.61459482 57.65584808 -3.63295771 49.19819399 -3.64385319 40.74049473 C-3.64908133 36.81363881 -3.65617771 32.88680445 -3.66748047 28.95996094 C-3.67831182 25.17338282 -3.68431837 21.38682549 -3.68691826 17.60023308 C-3.68877206 16.1524822 -3.69239182 14.70473251 -3.69777107 13.25699043 C-3.70498469 11.23595404 -3.7054491 9.21489692 -3.70556641 7.19384766 C-3.70778702 6.04135025 -3.71000763 4.88885284 -3.71229553 3.70143127 C-3.55028319 0.21488695 -3.48777345 0.1527564 0 0 Z " fill="#380589" transform="translate(97.592041015625,212.886474609375)"/>
<path d="M0 0 C4.48083709 4.1089099 7.60797827 8.89693398 8.9765625 14.8125 C4.79569098 14.88691989 0.6151752 14.94122818 -3.56616211 14.97729492 C-4.98712891 14.9923376 -6.40804963 15.01277704 -7.82885742 15.03881836 C-9.87690636 15.07540347 -11.924339 15.09227097 -13.97265625 15.10546875 C-15.81863403 15.12903442 -15.81863403 15.12903442 -17.7019043 15.15307617 C-21.30130904 14.78400821 -23.06923316 13.81644178 -26.0234375 11.8125 C-28.54888665 11.38088205 -28.54888665 11.38088205 -31.0859375 11.5 C-32.34083984 11.50580078 -32.34083984 11.50580078 -33.62109375 11.51171875 C-36.21514781 11.83650275 -37.84966607 12.36493284 -40.0234375 13.8125 C-40.3534375 14.8025 -40.6834375 15.7925 -41.0234375 16.8125 C-40.01313477 16.87195801 -40.01313477 16.87195801 -38.98242188 16.93261719 C-2.36538911 19.19154116 -2.36538911 19.19154116 6.69140625 28.12890625 C9.48134415 31.7838097 9.39741221 35.39357806 8.9765625 39.8125 C5.91678562 48.48415465 1.08156548 53.88811876 -7.0234375 58.0625 C-20.87530303 63.75504748 -40.99623338 63.72917571 -54.8984375 58.125 C-62.44165525 54.30422676 -67.32787138 49.52105177 -70.4296875 41.6328125 C-71.0234375 39.8125 -71.0234375 39.8125 -71.0234375 38.8125 C-66.82425565 38.73819506 -62.62542476 38.68382587 -58.42578125 38.64770508 C-56.99797904 38.63264319 -55.5702229 38.61218938 -54.14257812 38.58618164 C-52.08712377 38.54968158 -50.03228245 38.53274834 -47.9765625 38.51953125 C-46.12272949 38.49596558 -46.12272949 38.49596558 -44.23144531 38.47192383 C-40.73058518 38.84359049 -39.6357037 39.58740644 -37.0234375 41.8125 C-30.90550749 43.21661509 -27.487177 42.93463686 -22.0234375 39.8125 C-21.6934375 38.8225 -21.3634375 37.8325 -21.0234375 36.8125 C-21.70744629 36.76762451 -22.39145508 36.72274902 -23.09619141 36.67651367 C-60.07131916 34.1802107 -60.07131916 34.1802107 -68.0234375 26.8125 C-71.04445215 22.46979144 -71.72034634 19.03931633 -71.0234375 13.8125 C-68.19398246 5.90260124 -64.13820784 0.33741044 -56.5625 -3.40234375 C-40.26434801 -10.27889136 -14.70223001 -10.69253091 0 0 Z " fill="#380589" transform="translate(75.0234375,219.1875)"/>
<path d="M0 0 C5.07312525 0.217913 8.85425151 0.54907239 12.87988281 3.80688477 C17.72576665 9.65857943 21.07551307 16.41520344 24.47070312 23.17553711 C27.46010291 29.03314748 31.1688364 34.45145464 34.77783203 39.93920898 C36.10216322 42.00517843 37.423879 44.0728273 38.74267578 46.14233398 C40.9289287 49.55810293 43.12596334 52.96602741 45.34423828 56.36108398 C45.77486572 57.02213135 46.20549316 57.68317871 46.64916992 58.36425781 C47.74045247 60.03618589 48.83700435 61.70467155 49.93408203 63.37280273 C51.34033203 65.75170898 51.34033203 65.75170898 51.34033203 67.75170898 C46.80002223 68.0428119 42.26210575 68.21992368 37.71533203 68.37670898 C36.43013672 68.46049805 35.14494141 68.54428711 33.82080078 68.63061523 C30.08682354 68.7273504 26.95187722 68.72728467 23.34033203 67.75170898 C21.83691406 65.52075195 21.83691406 65.52075195 20.74658203 62.78295898 C19.60589875 59.92668836 19.60589875 59.92668836 17.34033203 57.75170898 C10.72036633 55.76686154 3.29551815 56.49354905 -3.53466797 56.62670898 C-5.48258541 56.62865172 -7.43051287 56.6260964 -9.37841797 56.61889648 C-14.14052565 56.6110839 -18.89838344 56.66488668 -23.65966797 56.75170898 C-24.7672593 59.50545062 -25.85104005 62.2616308 -26.89404297 65.04077148 C-30.29773421 68.3771581 -31.51508821 68.19352959 -36.17529297 68.33764648 C-38.75406828 68.29776852 -41.33250494 68.2262232 -43.90966797 68.12670898 C-45.22708984 68.09963867 -46.54451172 68.07256836 -47.90185547 68.04467773 C-51.15610384 67.9739332 -54.40706545 67.87524959 -57.65966797 67.75170898 C-54.36513882 61.56275061 -51.02358274 55.51929293 -47.03466797 49.75170898 C-43.1921888 44.09053966 -39.48251916 38.36049166 -35.84716797 32.56420898 C-31.44213874 25.54994157 -26.98350401 18.57313054 -22.47216797 11.62670898 C-21.90715576 10.75506104 -21.34214355 9.88341309 -20.76000977 8.98535156 C-20.23834229 8.18379639 -19.7166748 7.38224121 -19.17919922 6.55639648 C-18.71618408 5.84467285 -18.25316895 5.13294922 -17.77612305 4.3996582 C-14.26890899 -0.77718301 -5.69079173 0.20045615 0 0 Z M-3.65966797 21.75170898 C-5.48425867 24.45598992 -7.07654648 27.31081747 -8.72216797 30.12670898 C-9.19460937 30.92077148 -9.66705078 31.71483398 -10.15380859 32.53295898 C-10.82379883 33.6737793 -10.82379883 33.6737793 -11.50732422 34.83764648 C-11.91990479 35.53937988 -12.33248535 36.24111328 -12.75756836 36.96411133 C-13.80984363 38.71557643 -13.80984363 38.71557643 -13.65966797 40.75170898 C-6.39966797 40.75170898 0.86033203 40.75170898 8.34033203 40.75170898 C4.8625412 34.28140046 1.38972623 27.88364877 -2.65966797 21.75170898 C-2.98966797 21.75170898 -3.31966797 21.75170898 -3.65966797 21.75170898 Z " fill="#370388" transform="translate(261.65966796875,211.248291015625)"/>
<path d="M0 0 C26.07 0 52.14 0 79 0 C79 5.61 79 11.22 79 17 C70.42 17 61.84 17 53 17 C53 33.17 53 49.34 53 66 C43.76 66 34.52 66 25 66 C25 49.83 25 33.66 25 17 C16.75 17 8.5 17 0 17 C0 11.39 0 5.78 0 0 Z " fill="#390689" transform="translate(418,213)"/>
<path d="M0 0 C2 2.25 2 2.25 3 5 C2.23827309 8.53164296 1.56128588 10.43871412 -1 13 C-4.89201406 13.43244601 -7.13230302 13.57846465 -10.4375 11.375 C-12.45932313 8.30182885 -12.52755517 6.61752119 -12 3 C-8.87967893 -2.49770855 -5.49044911 -2.51645584 0 0 Z M-8 2 C-8.67801034 4.90073181 -8.67801034 4.90073181 -9 8 C-7.16734675 10.26839983 -7.16734675 10.26839983 -4.4375 10.1875 C-2.05310277 10.27003323 -2.05310277 10.27003323 -1 9 C-0.83333333 6 -0.83333333 6 -1 3 C-2.12534105 1.64381501 -2.12534105 1.64381501 -5.0625 1.9375 C-6.031875 1.958125 -7.00125 1.97875 -8 2 Z " fill="#FF337C" transform="translate(331,286)"/>
<path d="M0 0 C2.32749345 3.49124017 2.50299316 4.89222251 2 9 C0.4375 11.375 0.4375 11.375 -2 13 C-7.86310905 13.72003094 -7.86310905 13.72003094 -10.875 11.8125 C-12.35405406 9.42957957 -12.86591307 7.81582552 -13 5 C-11.75390398 2.17988796 -10.60174759 0.47724808 -8.1875 -1.4375 C-4.94378646 -2.27159777 -2.99333245 -1.36652133 0 0 Z M-9 3 C-9.16666667 6 -9.16666667 6 -9 9 C-7.94689723 10.27003323 -7.94689723 10.27003323 -5.5625 10.1875 C-2.83265325 10.26839983 -2.83265325 10.26839983 -1 8 C-1.28983269 4.69316534 -1.28983269 4.69316534 -3 2 C-6.28894893 1.59371033 -6.28894893 1.59371033 -9 3 Z " fill="#FF337C" transform="translate(159,286)"/>
<path d="M0 0 C2.33333333 2.33333333 4.66666667 4.66666667 7 7 C7.33 5.02 7.66 3.04 8 1 C8.99 1 9.98 1 11 1 C11 5.62 11 10.24 11 15 C7.23312136 13.11656068 6.20578354 12.30867531 4 9 C3.67 10.98 3.34 12.96 3 15 C2.01 15 1.02 15 0 15 C0 10.05 0 5.1 0 0 Z " fill="#FF347C" transform="translate(226,284)"/>
<path d="M0 0 C2.33333333 2.33333333 4.66666667 4.66666667 7 7 C7.33 5.02 7.66 3.04 8 1 C8.99 1 9.98 1 11 1 C11 5.62 11 10.24 11 15 C7.23312136 13.11656068 6.20578354 12.30867531 4 9 C3.67 10.98 3.34 12.96 3 15 C2.01 15 1.02 15 0 15 C0 10.05 0 5.1 0 0 Z " fill="#FF347C" transform="translate(172,284)"/>
<path d="M0 0 C0.99 0 1.98 0 3 0 C3 1.65 3 3.3 3 5 C4.32 5 5.64 5 7 5 C7 3.35 7 1.7 7 0 C7.99 0 8.98 0 10 0 C10 4.62 10 9.24 10 14 C9.01 14 8.02 14 7 14 C7 12.02 7 10.04 7 8 C5.68 8 4.36 8 3 8 C3 9.98 3 11.96 3 14 C2.01 14 1.02 14 0 14 C0 9.38 0 4.76 0 0 Z " fill="#FF2D78" transform="translate(298,285)"/>
<path d="M0 0 C6.0546875 -0.1953125 6.0546875 -0.1953125 8 0 C8.66 0.66 9.32 1.32 10 2 C9.625 5.125 9.625 5.125 9 8 C7.02 8.33 5.04 8.66 3 9 C3 10.65 3 12.3 3 14 C2.01 14 1.02 14 0 14 C0 9.38 0 4.76 0 0 Z M3 3 C3 3.99 3 4.98 3 6 C4.32 5.67 5.64 5.34 7 5 C7 4.34 7 3.68 7 3 C5.68 3 4.36 3 3 3 Z " fill="#FF357D" transform="translate(344,285)"/>
<path d="M0 0 C2.31 0 4.62 0 7 0 C7 0.99 7 1.98 7 3 C5.68 3 4.36 3 3 3 C3 3.66 3 4.32 3 5 C4.32 5.33 5.64 5.66 7 6 C7 6.66 7 7.32 7 8 C5.68 8 4.36 8 3 8 C3 8.99 3 9.98 3 11 C4.32 11 5.64 11 7 11 C7 11.99 7 12.98 7 14 C4.69 14 2.38 14 0 14 C0 9.38 0 4.76 0 0 Z " fill="#FF317A" transform="translate(248,285)"/>
<path d="M0 0 C1.4540625 0.0309375 1.4540625 0.0309375 2.9375 0.0625 C2.6075 1.0525 2.2775 2.0425 1.9375 3.0625 C0.9475 3.0625 -0.0425 3.0625 -1.0625 3.0625 C-1.3925 3.7225 -1.7225 4.3825 -2.0625 5.0625 C-1.258125 5.31 -0.45375 5.5575 0.375 5.8125 C2.9375 7.0625 2.9375 7.0625 3.875 9 C3.9375 11.0625 3.9375 11.0625 1.9375 14.0625 C-1.1875 14.25 -1.1875 14.25 -4.0625 14.0625 C-4.3925 12.7425 -4.7225 11.4225 -5.0625 10.0625 C-2.0925 10.5575 -2.0925 10.5575 0.9375 11.0625 C-0.99504772 9.0379262 -2.69408688 7.64144208 -5.0625 6.0625 C-3.98897059 0.08140756 -3.98897059 0.08140756 0 0 Z " fill="#FF357D" transform="translate(284.0625,284.9375)"/>
<path d="M0 0 C0.99 0 1.98 0 3 0 C3 3.63 3 7.26 3 11 C4.32 11 5.64 11 7 11 C7 11.99 7 12.98 7 14 C4.69 14 2.38 14 0 14 C0 9.38 0 4.76 0 0 Z " fill="#FF2E79" transform="translate(194,285)"/>
<path d="M0 0 C0.66 0 1.32 0 2 0 C2 4.62 2 9.24 2 14 C1.34 14 0.68 14 0 14 C0 9.38 0 4.76 0 0 Z " fill="#FF1F70" transform="translate(212,285)"/>
</svg>
